# xmcd
#
# Track frame offsets:
#	150
#	12942
#	28504
#	40755
#	51547
#	68471
#	81406
#	93691
#	106883
#	122118
#	135263
#	148778
#	160675
#	181218
#	194137
#	215634
#	229756
#	248038
#	261443
#	277673
#	291274
#	309152
#
# Disc length: 4348 seconds
#
# Revision: 0
# Processed by: cddbd v1.5PL3 Copyright (c) Steve Scherf et al.
# Submitted via: EasyCDDAExtractor 4.6.9.1
#
DISCID=3c10fa16
DTITLE=Conway Twitty - The Conway Twitty Collection - Disc 3 
DYEAR=1994
DGENRE=Country
TTITLE0=I've Already Loved You In My Mind
TTITLE1=The Grandest Lady Of Them All
TTITLE2=Your Love Had Taken Me That High
TTITLE3=Boogie Grass Band
TTITLE4=Don't Take It Away
TTITLE5=I May Never Get To Heaven
TTITLE6=You Know Just What I'd Do (w-Loretta Lynn)
TTITLE7=Happy Birthday Darlin'
TTITLE8=I'd Love To Lay You Down
TTITLE9=It's True Love (w-Loretta Lynn)
TTITLE10=A Bridge That Just Won't Burn
TTITLE11=Lovin' What Your Lovin' Does To Me (w-Loretta Lynn)
TTITLE12=Rest Your Love On Me
TTITLE13=Tight Fittin' Jeans
TTITLE14=Red Neckin' Love Makin' Night
TTITLE15=We Had It All
TTITLE16=The Clown
TTITLE17=Slow Hand
TTITLE18=The Rose
TTITLE19=I Don't Know A Thing About Love
TTITLE20=Somebody's Needin' Somebody
TTITLE21=Julia
EXTD=
EXTT0=
EXTT1=
EXTT2=
EXTT3=
EXTT4=
EXTT5=
EXTT6=
EXTT7=
EXTT8=
EXTT9=
EXTT10=
EXTT11=
EXTT12=
EXTT13=
EXTT14=
EXTT15=
EXTT16=
EXTT17=
EXTT18=
EXTT19=
EXTT20=
EXTT21=
PLAYORDER=
